# xmcd
#
# Track frame offsets:
#  150
#  10650
#  23250
#  42075
#  52500
#  63750
#  82800
#  94500
#  112650
#  131400
#  144525
#  160725
#  174300
#
# Disc length: 2520 seconds
#
# Revision: 0
# Processed by: cddbd v1.5.1PL2 Copyright (c) Steve Scherf et al.
# Submitted via: Collectorz.com_Music_Collector 6.9
#
DISCID=7b09d60d
DTITLE=U-Bahn Pepi und seine G'leispartie - I bin da Blues
DYEAR=1992
DGENRE=Blues
TTITLE0=I' bin da Blues
TTITLE1=Ka' Angst
TTITLE2=Nur mit Dir
TTITLE3=Scho' lang net fuat
TTITLE4=Love Mama
TTITLE5=Du und i
TTITLE6=Tarzan
TTITLE7=Vorbei mit'n Blues
TTITLE8=Hoit mi' ganz fest
TTITLE9=Happy Birthday
TTITLE10=Mei' letzter Auftritt
TTITLE11=Ich trinke alle schön
TTITLE12=U-Bahn Pepi
EXTD=
EXTT0=
EXTT1=
EXTT2=
EXTT3=
EXTT4=
EXTT5=
EXTT6=
EXTT7=
EXTT8=
EXTT9=
EXTT10=
EXTT11=
EXTT12=
PLAYORDER=
